#!OML:ASF H:\charlestonDancing\Project 1\Capture day 1\Session 1\femaleDancer.ASF
:FULLY-SPECIFIED
:DEGREES
314
root -11.2871 17.7424 3.1639 138.999 -92.4177 -126.551
lowerback 13.0275 -4.85606 -0.90197
upperback 0.985348 -6.66023 -0.742062
thorax -6.22071 -3.26112 0.930627
lowerneck 9.29646 -16.0428 -10.4047
upperneck -9.78037 -21.8198 12.0153
head -1.91749 -11.2029 5.66564
rclavicle 3.02153e-014 2.38542e-014
rhumerus -27.4414 -6.78084 -52.0523
rradius 20.6237
rwrist 64.7077
rhand -34.4355 -40.2767
rfingers 7.12502
rthumb -7.59991 289.88
lclavicle 3.02153e-014 2.38542e-014
lhumerus -40.6938 9.28518 44.1273
lradius 39.1734
lwrist -15.6279
lhand -33.4212 10.8132
lfingers 7.12502
lthumb -6.62083 40.6897
rfemur -27.3621 -6.51005 29.547
rtibia 48.2054
rfoot -12.3699 -10.1004
rtoes 3.35086
lfemur -11.2487 14.043 -24.2148
ltibia 52.6511
lfoot 13.6379 5.73158
ltoes -25.8027
315
root -11.3131 17.7334 3.18553 139.784 -92.6377 -126.656
lowerback 11.9764 -4.91635 -0.729987
upperback 0.703978 -6.70046 -0.727716
thorax -5.95176 -3.28838 0.775271
lowerneck 9.62251 -16.1466 -10.5143
upperneck -9.91878 -21.9927 12.0045
head -1.98079 -11.289 5.70926
rclavicle 3.79679e-014 -3.65764e-014
rhumerus -27.6761 -5.06783 -54.1091
rradius 21.28
rwrist 60.4675
rhand -34.2588 -39.3345
rfingers 7.12502
rthumb -7.42938 290.816
lclavicle 3.79679e-014 -3.65764e-014
lhumerus -41.5896 11.9783 43.3832
lradius 37.9532
lwrist -11.071
lhand -33.7483 11.915
lfingers 7.12502
lthumb -6.93658 41.7814
rfemur -27.7832 -10.0982 30.7529
rtibia 47.4502
rfoot -16.2287 -13.0349
rtoes -6.89737
lfemur -10.3161 16.2053 -25.2436
ltibia 50.8993
lfoot 8.53213 9.40139
ltoes -31.0419
316
root -11.3364 17.6954 3.20314 143.68 -92.8077 -129.882
lowerback 11.0138 -4.96029 -0.421354
upperback 0.367948 -6.70113 -0.613942
thorax -5.79115 -3.29645 0.652371
lowerneck 9.59838 -16.3299 -10.6033
upperneck -9.78243 -22.2745 11.6577
head -1.93914 -11.4055 5.60486
rclavicle -2.40529e-014 8.74653e-015
rhumerus -27.8603 -3.5947 -56.1358
rradius 22.142
rwrist 56.8226
rhand -34.0358 -38.3404
rfingers 7.12502
rthumb -7.21416 291.803
lclavicle -2.40529e-014 8.74653e-015
lhumerus -42.5095 14.2935 43.0165
lradius 36.8503
lwrist -7.30738
lhand -34.7219 12.1291
lfingers 7.12502
lthumb -7.87637 41.9623
rfemur -27.967 -12.2592 31.4317
rtibia 46.4664
rfoot -19.0188 -12.9995
rtoes -0.731029
lfemur -9.54942 18.2761 -26.0358
ltibia 49.178
lfoot 5.34313 10.63
ltoes -33.8359
317
root -11.3471 17.6352 3.21282 146.882 -92.9473 -132.558
lowerback 10.3739 -4.92023 -0.219274
upperback 0.0259682 -6.60959 -0.458714
thorax -5.79841 -3.25368 0.647296
lowerneck 9.75106 -16.4998 -10.6556
upperneck -9.8858 -22.5408 11.3473
head -1.99878 -11.5194 5.5411
rclavicle 5.96354e-016 -1.15295e-014
rhumerus -27.8223 -2.69905 -58.0478
rradius 23.0025
rwrist 54.185
rhand -33.7395 -37.5788
rfingers 7.12502
rthumb -6.92807 292.555
lclavicle 5.96354e-016 -1.15295e-014
lhumerus -43.2996 16.2119 43.015
lradius 35.8818
lwrist -5.14867
lhand -35.0373 12.63
lfingers 7.12502
lthumb -8.18081 42.4516
rfemur -27.6076 -11.9992 31.0292
rtibia 45.5181
rfoot -20.5548 -12.5485
rtoes -8.80746
lfemur -9.26291 18.2792 -26.4126
ltibia 47.8888
lfoot 1.14686 12.2745
ltoes -13.6203
318
root -11.339 17.5453 3.21498 149.96 -93.0305 -135.356
lowerback 10.1537 -4.8663 -0.105127
upperback -0.254231 -6.51244 -0.275804
thorax -5.96183 -3.20329 0.754684
lowerneck 9.85115 -16.6127 -10.6906
upperneck -10.0686 -22.7199 11.1162
head -2.07593 -11.5939 5.50045
rclavicle -2.49475e-014 -6.75868e-015
rhumerus -27.8534 -2.13561 -59.9092
rradius 23.9742
rwrist 52.6861
rhand -33.6368 -37.0715
rfingers 7.12502
rthumb -6.82898 293.059
lclavicle -2.49475e-014 -6.75868e-015
lhumerus -43.9835 17.3972 43.4857
lradius 34.9628
lwrist -4.06071
lhand -34.5877 13.4085
lfingers 7.12502
lthumb -7.74685 43.2466
rfemur -27.0368 -10.2871 30.0705
rtibia 44.8205
rfoot -21.722 -10.9823
rtoes -12.2693
lfemur -9.08567 17.3526 -26.4914
ltibia 47.4628
lfoot -0.283776 11.5276
ltoes -10.2631
